<svg xmlns="http://www.w3.org/2000/svg" class="mp-svg" viewBox="0 0 360 280" role="img" aria-label="Rejilla de ocupación: blanco libre, negro ocupado, gris desconocido"><style>text{font-family:Arial,sans-serif;fill:#1e2632}.mp-bg{fill:#fff}.mp-room{fill:#eef2f8}.mp-beam{stroke:#004eaa;stroke-width:1;opacity:.15}.mp-border{stroke:#cbd3de}.mp-muted{fill:#5a6371}.mp-blue{stroke:#004eaa}.mp-green{stroke:#3a6b0e}.mp-orange{stroke:#9a4505}.mp-node{fill:#004eaa;stroke:#fff;stroke-width:1.2}.mp-selected{fill:#3a6b0e;stroke:#1e2632;stroke-width:2}</style><rect class="mp-bg" width="360" height="280"/><rect x="20" y="20" width="20" height="20" fill="#aeb6c2" stroke="#8794a8" stroke-width=".6"/><rect x="40" y="20" width="20" height="20" fill="#222831" stroke="#8794a8" stroke-width=".6"/><rect x="60" y="20" width="20" height="20" fill="#222831" stroke="#8794a8" stroke-width=".6"/><rect x="80" y="20" width="20" height="20" fill="#222831" stroke="#8794a8" stroke-width=".6"/><rect x="100" y="20" width="20" height="20" fill="#222831" stroke="#8794a8" stroke-width=".6"/><rect x="120" y="20" width="20" height="20" fill="#222831" stroke="#8794a8" stroke-width=".6"/><rect x="140" y="20" width="20" height="20" fill="#222831" stroke="#8794a8" stroke-width=".6"/><rect x="160" y="20" width="20" height="20" fill="#222831" stroke="#8794a8" stroke-width=".6"/><rect x="180" y="20" width="20" height="20" fill="#222831" stroke="#8794a8" stroke-width=".6"/><rect x="200" y="20" width="20" height="20" fill="#222831" stroke="#8794a8" stroke-width=".6"/><rect x="220" y="20" width="20" height="20" fill="#222831" stroke="#8794a8" stroke-width=".6"/><rect x="240" y="20" width="20" height="20" fill="#222831" stroke="#8794a8" stroke-width=".6"/><rect x="260" y="20" width="20" height="20" fill="#222831" stroke="#8794a8" stroke-width=".6"/><rect x="280" y="20" width="20" height="20" fill="#aeb6c2" stroke="#8794a8" stroke-width=".6"/><rect x="300" y="20" width="20" height="20" fill="#aeb6c2" stroke="#8794a8" stroke-width=".6"/><rect x="320" y="20" width="20" height="20" fill="#aeb6c2" stroke="#8794a8" stroke-width=".6"/><rect x="20" y="40" width="20" height="20" fill="#222831" stroke="#8794a8" stroke-width=".6"/><rect x="40" y="40" width="20" height="20" fill="#fff" stroke="#8794a8" stroke-width=".6"/><rect x="60" y="40" width="20" height="20" fill="#fff" stroke="#8794a8" stroke-width=".6"/><rect x="80" y="40" width="20" height="20" fill="#fff" stroke="#8794a8" stroke-width=".6"/><rect x="100" y="40" width="20" height="20" fill="#fff" stroke="#8794a8" stroke-width=".6"/><rect x="120" y="40" width="20" height="20" fill="#fff" stroke="#8794a8" stroke-width=".6"/><rect x="140" y="40" width="20" height="20" fill="#fff" stroke="#8794a8" stroke-width=".6"/><rect x="160" y="40" width="20" height="20" fill="#fff" stroke="#8794a8" stroke-width=".6"/><rect x="180" y="40" width="20" height="20" fill="#fff" stroke="#8794a8" stroke-width=".6"/><rect x="200" y="40" width="20" height="20" fill="#fff" stroke="#8794a8" stroke-width=".6"/><rect x="220" y="40" width="20" height="20" fill="#fff" stroke="#8794a8" stroke-width=".6"/><rect x="240" y="40" width="20" height="20" fill="#fff" stroke="#8794a8" stroke-width=".6"/><rect x="260" y="40" width="20" height="20" fill="#aeb6c2" stroke="#8794a8" stroke-width=".6"/><rect x="280" y="40" width="20" height="20" fill="#aeb6c2" stroke="#8794a8" stroke-width=".6"/><rect x="300" y="40" width="20" height="20" fill="#aeb6c2" stroke="#8794a8" stroke-width=".6"/><rect x="320" y="40" width="20" height="20" fill="#aeb6c2" stroke="#8794a8" stroke-width=".6"/><rect x="20" y="60" width="20" height="20" fill="#222831" stroke="#8794a8" stroke-width=".6"/><rect x="40" y="60" width="20" height="20" fill="#fff" stroke="#8794a8" stroke-width=".6"/><rect x="60" y="60" width="20" height="20" fill="#fff" stroke="#8794a8" stroke-width=".6"/><rect x="80" y="60" width="20" height="20" fill="#fff" stroke="#8794a8" stroke-width=".6"/><rect x="100" y="60" width="20" height="20" fill="#fff" stroke="#8794a8" stroke-width=".6"/><rect x="120" y="60" width="20" height="20" fill="#fff" stroke="#8794a8" stroke-width=".6"/><rect x="140" y="60" width="20" height="20" fill="#fff" stroke="#8794a8" stroke-width=".6"/><rect x="160" y="60" width="20" height="20" fill="#fff" stroke="#8794a8" stroke-width=".6"/><rect x="180" y="60" width="20" height="20" fill="#fff" stroke="#8794a8" stroke-width=".6"/><rect x="200" y="60" width="20" height="20" fill="#fff" stroke="#8794a8" stroke-width=".6"/><rect x="220" y="60" width="20" height="20" fill="#222831" stroke="#8794a8" stroke-width=".6"/><rect x="240" y="60" width="20" height="20" fill="#aeb6c2" stroke="#8794a8" stroke-width=".6"/><rect x="260" y="60" width="20" height="20" fill="#aeb6c2" stroke="#8794a8" stroke-width=".6"/><rect x="280" y="60" width="20" height="20" fill="#aeb6c2" stroke="#8794a8" stroke-width=".6"/><rect x="300" y="60" width="20" height="20" fill="#aeb6c2" stroke="#8794a8" stroke-width=".6"/><rect x="320" y="60" width="20" height="20" fill="#aeb6c2" stroke="#8794a8" stroke-width=".6"/><rect x="20" y="80" width="20" height="20" fill="#222831" stroke="#8794a8" stroke-width=".6"/><rect x="40" y="80" width="20" height="20" fill="#fff" stroke="#8794a8" stroke-width=".6"/><rect x="60" y="80" width="20" height="20" fill="#fff" stroke="#8794a8" stroke-width=".6"/><rect x="80" y="80" width="20" height="20" fill="#fff" stroke="#8794a8" stroke-width=".6"/><rect x="100" y="80" width="20" height="20" fill="#fff" stroke="#8794a8" stroke-width=".6"/><rect x="120" y="80" width="20" height="20" fill="#fff" stroke="#8794a8" stroke-width=".6"/><rect x="140" y="80" width="20" height="20" fill="#fff" stroke="#8794a8" stroke-width=".6"/><rect x="160" y="80" width="20" height="20" fill="#fff" stroke="#8794a8" stroke-width=".6"/><rect x="180" y="80" width="20" height="20" fill="#fff" stroke="#8794a8" stroke-width=".6"/><rect x="200" y="80" width="20" height="20" fill="#fff" stroke="#8794a8" stroke-width=".6"/><rect x="220" y="80" width="20" height="20" fill="#222831" stroke="#8794a8" stroke-width=".6"/><rect x="240" y="80" width="20" height="20" fill="#aeb6c2" stroke="#8794a8" stroke-width=".6"/><rect x="260" y="80" width="20" height="20" fill="#aeb6c2" stroke="#8794a8" stroke-width=".6"/><rect x="280" y="80" width="20" height="20" fill="#aeb6c2" stroke="#8794a8" stroke-width=".6"/><rect x="300" y="80" width="20" height="20" fill="#aeb6c2" stroke="#8794a8" stroke-width=".6"/><rect x="320" y="80" width="20" height="20" fill="#aeb6c2" stroke="#8794a8" stroke-width=".6"/><rect x="20" y="100" width="20" height="20" fill="#222831" stroke="#8794a8" stroke-width=".6"/><rect x="40" y="100" width="20" height="20" fill="#fff" stroke="#8794a8" stroke-width=".6"/><rect x="60" y="100" width="20" height="20" fill="#fff" stroke="#8794a8" stroke-width=".6"/><rect x="80" y="100" width="20" height="20" fill="#fff" stroke="#8794a8" stroke-width=".6"/><rect x="100" y="100" width="20" height="20" fill="#fff" stroke="#8794a8" stroke-width=".6"/><rect x="120" y="100" width="20" height="20" fill="#fff" stroke="#8794a8" stroke-width=".6"/><rect x="140" y="100" width="20" height="20" fill="#fff" stroke="#8794a8" stroke-width=".6"/><rect x="160" y="100" width="20" height="20" fill="#fff" stroke="#8794a8" stroke-width=".6"/><rect x="180" y="100" width="20" height="20" fill="#fff" stroke="#8794a8" stroke-width=".6"/><rect x="200" y="100" width="20" height="20" fill="#fff" stroke="#8794a8" stroke-width=".6"/><rect x="220" y="100" width="20" height="20" fill="#222831" stroke="#8794a8" stroke-width=".6"/><rect x="240" y="100" width="20" height="20" fill="#aeb6c2" stroke="#8794a8" stroke-width=".6"/><rect x="260" y="100" width="20" height="20" fill="#aeb6c2" stroke="#8794a8" stroke-width=".6"/><rect x="280" y="100" width="20" height="20" fill="#aeb6c2" stroke="#8794a8" stroke-width=".6"/><rect x="300" y="100" width="20" height="20" fill="#aeb6c2" stroke="#8794a8" stroke-width=".6"/><rect x="320" y="100" width="20" height="20" fill="#aeb6c2" stroke="#8794a8" stroke-width=".6"/><rect x="20" y="120" width="20" height="20" fill="#222831" stroke="#8794a8" stroke-width=".6"/><rect x="40" y="120" width="20" height="20" fill="#fff" stroke="#8794a8" stroke-width=".6"/><rect x="60" y="120" width="20" height="20" fill="#fff" stroke="#8794a8" stroke-width=".6"/><rect x="80" y="120" width="20" height="20" fill="#fff" stroke="#8794a8" stroke-width=".6"/><rect x="100" y="120" width="20" height="20" fill="#fff" stroke="#8794a8" stroke-width=".6"/><rect x="120" y="120" width="20" height="20" fill="#fff" stroke="#8794a8" stroke-width=".6"/><rect x="140" y="120" width="20" height="20" fill="#fff" stroke="#8794a8" stroke-width=".6"/><rect x="160" y="120" width="20" height="20" fill="#fff" stroke="#8794a8" stroke-width=".6"/><rect x="180" y="120" width="20" height="20" fill="#fff" stroke="#8794a8" stroke-width=".6"/><rect x="200" y="120" width="20" height="20" fill="#fff" stroke="#8794a8" stroke-width=".6"/><rect x="220" y="120" width="20" height="20" fill="#222831" stroke="#8794a8" stroke-width=".6"/><rect x="240" y="120" width="20" height="20" fill="#aeb6c2" stroke="#8794a8" stroke-width=".6"/><rect x="260" y="120" width="20" height="20" fill="#aeb6c2" stroke="#8794a8" stroke-width=".6"/><rect x="280" y="120" width="20" height="20" fill="#aeb6c2" stroke="#8794a8" stroke-width=".6"/><rect x="300" y="120" width="20" height="20" fill="#aeb6c2" stroke="#8794a8" stroke-width=".6"/><rect x="320" y="120" width="20" height="20" fill="#aeb6c2" stroke="#8794a8" stroke-width=".6"/><rect x="20" y="140" width="20" height="20" fill="#222831" stroke="#8794a8" stroke-width=".6"/><rect x="40" y="140" width="20" height="20" fill="#fff" stroke="#8794a8" stroke-width=".6"/><rect x="60" y="140" width="20" height="20" fill="#fff" stroke="#8794a8" stroke-width=".6"/><rect x="80" y="140" width="20" height="20" fill="#fff" stroke="#8794a8" stroke-width=".6"/><rect x="100" y="140" width="20" height="20" fill="#fff" stroke="#8794a8" stroke-width=".6"/><rect x="120" y="140" width="20" height="20" fill="#fff" stroke="#8794a8" stroke-width=".6"/><rect x="140" y="140" width="20" height="20" fill="#fff" stroke="#8794a8" stroke-width=".6"/><rect x="160" y="140" width="20" height="20" fill="#fff" stroke="#8794a8" stroke-width=".6"/><rect x="180" y="140" width="20" height="20" fill="#fff" stroke="#8794a8" stroke-width=".6"/><rect x="200" y="140" width="20" height="20" fill="#fff" stroke="#8794a8" stroke-width=".6"/><rect x="220" y="140" width="20" height="20" fill="#222831" stroke="#8794a8" stroke-width=".6"/><rect x="240" y="140" width="20" height="20" fill="#aeb6c2" stroke="#8794a8" stroke-width=".6"/><rect x="260" y="140" width="20" height="20" fill="#aeb6c2" stroke="#8794a8" stroke-width=".6"/><rect x="280" y="140" width="20" height="20" fill="#aeb6c2" stroke="#8794a8" stroke-width=".6"/><rect x="300" y="140" width="20" height="20" fill="#aeb6c2" stroke="#8794a8" stroke-width=".6"/><rect x="320" y="140" width="20" height="20" fill="#aeb6c2" stroke="#8794a8" stroke-width=".6"/><rect x="20" y="160" width="20" height="20" fill="#222831" stroke="#8794a8" stroke-width=".6"/><rect x="40" y="160" width="20" height="20" fill="#fff" stroke="#8794a8" stroke-width=".6"/><rect x="60" y="160" width="20" height="20" fill="#fff" stroke="#8794a8" stroke-width=".6"/><rect x="80" y="160" width="20" height="20" fill="#fff" stroke="#8794a8" stroke-width=".6"/><rect x="100" y="160" width="20" height="20" fill="#fff" stroke="#8794a8" stroke-width=".6"/><rect x="120" y="160" width="20" height="20" fill="#fff" stroke="#8794a8" stroke-width=".6"/><rect x="140" y="160" width="20" height="20" fill="#fff" stroke="#8794a8" stroke-width=".6"/><rect x="160" y="160" width="20" height="20" fill="#fff" stroke="#8794a8" stroke-width=".6"/><rect x="180" y="160" width="20" height="20" fill="#fff" stroke="#8794a8" stroke-width=".6"/><rect x="200" y="160" width="20" height="20" fill="#fff" stroke="#8794a8" stroke-width=".6"/><rect x="220" y="160" width="20" height="20" fill="#222831" stroke="#8794a8" stroke-width=".6"/><rect x="240" y="160" width="20" height="20" fill="#aeb6c2" stroke="#8794a8" stroke-width=".6"/><rect x="260" y="160" width="20" height="20" fill="#aeb6c2" stroke="#8794a8" stroke-width=".6"/><rect x="280" y="160" width="20" height="20" fill="#aeb6c2" stroke="#8794a8" stroke-width=".6"/><rect x="300" y="160" width="20" height="20" fill="#aeb6c2" stroke="#8794a8" stroke-width=".6"/><rect x="320" y="160" width="20" height="20" fill="#aeb6c2" stroke="#8794a8" stroke-width=".6"/><rect x="20" y="180" width="20" height="20" fill="#222831" stroke="#8794a8" stroke-width=".6"/><rect x="40" y="180" width="20" height="20" fill="#fff" stroke="#8794a8" stroke-width=".6"/><rect x="60" y="180" width="20" height="20" fill="#fff" stroke="#8794a8" stroke-width=".6"/><rect x="80" y="180" width="20" height="20" fill="#fff" stroke="#8794a8" stroke-width=".6"/><rect x="100" y="180" width="20" height="20" fill="#fff" stroke="#8794a8" stroke-width=".6"/><rect x="120" y="180" width="20" height="20" fill="#fff" stroke="#8794a8" stroke-width=".6"/><rect x="140" y="180" width="20" height="20" fill="#fff" stroke="#8794a8" stroke-width=".6"/><rect x="160" y="180" width="20" height="20" fill="#fff" stroke="#8794a8" stroke-width=".6"/><rect x="180" y="180" width="20" height="20" fill="#fff" stroke="#8794a8" stroke-width=".6"/><rect x="200" y="180" width="20" height="20" fill="#fff" stroke="#8794a8" stroke-width=".6"/><rect x="220" y="180" width="20" height="20" fill="#fff" stroke="#8794a8" stroke-width=".6"/><rect x="240" y="180" width="20" height="20" fill="#fff" stroke="#8794a8" stroke-width=".6"/><rect x="260" y="180" width="20" height="20" fill="#fff" stroke="#8794a8" stroke-width=".6"/><rect x="280" y="180" width="20" height="20" fill="#aeb6c2" stroke="#8794a8" stroke-width=".6"/><rect x="300" y="180" width="20" height="20" fill="#aeb6c2" stroke="#8794a8" stroke-width=".6"/><rect x="320" y="180" width="20" height="20" fill="#aeb6c2" stroke="#8794a8" stroke-width=".6"/><rect x="20" y="200" width="20" height="20" fill="#aeb6c2" stroke="#8794a8" stroke-width=".6"/><rect x="40" y="200" width="20" height="20" fill="#222831" stroke="#8794a8" stroke-width=".6"/><rect x="60" y="200" width="20" height="20" fill="#222831" stroke="#8794a8" stroke-width=".6"/><rect x="80" y="200" width="20" height="20" fill="#222831" stroke="#8794a8" stroke-width=".6"/><rect x="100" y="200" width="20" height="20" fill="#222831" stroke="#8794a8" stroke-width=".6"/><rect x="120" y="200" width="20" height="20" fill="#222831" stroke="#8794a8" stroke-width=".6"/><rect x="140" y="200" width="20" height="20" fill="#222831" stroke="#8794a8" stroke-width=".6"/><rect x="160" y="200" width="20" height="20" fill="#222831" stroke="#8794a8" stroke-width=".6"/><rect x="180" y="200" width="20" height="20" fill="#222831" stroke="#8794a8" stroke-width=".6"/><rect x="200" y="200" width="20" height="20" fill="#222831" stroke="#8794a8" stroke-width=".6"/><rect x="220" y="200" width="20" height="20" fill="#222831" stroke="#8794a8" stroke-width=".6"/><rect x="240" y="200" width="20" height="20" fill="#222831" stroke="#8794a8" stroke-width=".6"/><rect x="260" y="200" width="20" height="20" fill="#222831" stroke="#8794a8" stroke-width=".6"/><rect x="280" y="200" width="20" height="20" fill="#222831" stroke="#8794a8" stroke-width=".6"/><rect x="300" y="200" width="20" height="20" fill="#aeb6c2" stroke="#8794a8" stroke-width=".6"/><rect x="320" y="200" width="20" height="20" fill="#aeb6c2" stroke="#8794a8" stroke-width=".6"/><circle cx="70" cy="130" r="6" fill="#004eaa" stroke="#fff" pointer-events="none"/><text x="20" y="242" font-size="14" class="mp-ink">Cada celda: 5 × 5 cm</text><text x="20" y="264" font-size="13" class="mp-ink">16 columnas × 10 filas · ejemplo ampliado</text></svg>
